<svg viewBox="0 0 1024 1024" version="1.1" xmlns="http://www.w3.org/2000/svg" p-id="4308" width="20" height="20"><path d="M512 741.952a45.056 45.056 0 0 1-32.832-14.08l-281.6-281.6c-18.816-18.752-18.816-48.448 0-65.664 18.752-18.816 48.448-18.816 65.664 0L512 629.312l248.768-248.704c18.752-18.816 48.448-18.816 65.664 0 18.816 18.752 18.816 48.448 0 65.664l-281.6 281.6c-9.344 10.944-20.352 14.08-32.832 14.08z" fill="#1296db" p-id="4309"></path><path d="M934.4 981.312H89.6a46.08 46.08 0 0 1-46.912-46.912V536.96a46.08 46.08 0 0 1 46.912-46.912 46.08 46.08 0 0 1 46.912 46.912v350.464h750.976V536.96a46.08 46.08 0 0 1 46.912-46.912 46.08 46.08 0 0 1 46.912 46.912V934.4a46.08 46.08 0 0 1-46.912 46.912z" fill="#1296db" p-id="4310"></path><path d="M512 691.904a46.08 46.08 0 0 1-46.912-46.912V89.6A46.08 46.08 0 0 1 512 42.688a46.08 46.08 0 0 1 46.912 46.912v555.392A46.08 46.08 0 0 1 512 691.84z" fill="#1296db" p-id="4311"></path></svg>